<svg data-v-423bf9ae="" xmlns="http://www.w3.org/2000/svg" viewBox="0 0 296.77232633141546 60" class="font"><!----><!----><!----><g data-v-423bf9ae="" id="602afd69-1dc8-47a3-b93f-ec33957585e0" fill="white" transform="matrix(5.763688845290021,0,0,5.763688845290021,-1.2680103077994147,-21.383286789567578)"><path d="M4.04 8.07L4.04 9.32L4.04 9.32Q4.07 9.34 4.20 9.34L4.20 9.34L4.20 9.34Q4.33 9.34 4.40 9.24L4.40 9.24L4.40 9.24Q4.46 9.14 4.46 8.91L4.46 8.91L4.46 8.39L4.46 8.39Q4.46 8.14 4.41 8.04L4.41 8.04L4.41 8.04Q4.35 7.93 4.21 7.93L4.21 7.93L4.21 7.93Q4.08 7.93 4.03 7.96L4.03 7.96L4.03 7.96Q4.04 7.99 4.04 8.07L4.04 8.07ZM4.21 12.41L4.21 12.41L4.21 13.46L4.21 13.46Q3.91 13.71 3.36 13.87L3.36 13.87L3.36 13.87Q2.82 14.03 2.22 14.03L2.22 14.03L2.22 14.03Q1.37 14.03 0.83 13.71L0.83 13.71L0.83 13.71Q0.22 13.33 0.22 12.62L0.22 12.62L0.22 6.13L0.22 6.13Q0.22 5.91 0.52 5.69L0.52 5.69L0.52 5.69Q0.81 5.47 1.34 5.29L1.34 5.29L1.34 5.29Q2.47 4.91 3.92 4.91L3.92 4.91L3.92 4.91Q5.92 4.91 7.11 5.91L7.11 5.91L7.11 5.91Q8.30 6.90 8.30 8.59L8.30 8.59L8.30 8.59Q8.30 10.27 7.23 11.21L7.23 11.21L7.23 11.21Q6.19 12.10 4.36 12.10L4.36 12.10L4.36 12.10Q3.94 12.10 3.47 12.00L3.47 12.00L3.47 12.00Q2.99 11.90 2.83 11.83L2.83 11.83L2.83 11.83Q2.78 11.88 2.78 11.98L2.78 11.98L2.78 11.98Q2.78 12.33 4.21 12.41ZM12.58 14.12L12.58 14.12L12.58 14.12Q10.68 14.12 9.59 13.07L9.59 13.07L9.59 13.07Q8.47 12.01 8.47 10.17L8.47 10.17L8.47 10.17Q8.47 8.33 9.63 7.25L9.63 7.25L9.63 7.25Q10.69 6.24 12.33 6.24L12.33 6.24L12.33 6.24Q13.96 6.24 14.95 7.14L14.95 7.14L14.95 7.14Q15.93 8.04 15.93 9.35L15.93 9.35L15.93 9.35Q15.93 10.52 15.12 11.12L15.12 11.12L15.12 11.12Q14.37 11.68 13.07 11.68L13.07 11.68L13.07 11.68Q12.10 11.68 11.43 11.27L11.43 11.27L11.43 11.27Q11.38 11.31 11.38 11.42L11.38 11.42L11.38 11.42Q11.38 11.63 11.92 11.80L11.92 11.80L11.92 11.80Q12.46 11.98 13.14 11.98L13.14 11.98L13.14 11.98Q13.83 11.98 14.39 11.81L14.39 11.81L14.39 11.81Q14.96 11.63 15.30 11.40L15.30 11.40L15.30 11.40Q15.46 11.54 15.56 11.93L15.56 11.93L15.56 11.93Q15.66 12.31 15.66 12.63L15.66 12.63L15.66 12.63Q15.66 12.95 15.60 13.19L15.60 13.19L15.60 13.19Q15.07 13.64 14.51 13.84L14.51 13.84L14.51 13.84Q13.71 14.12 12.58 14.12ZM12.49 9.50L12.49 9.50L12.49 9.50Q12.83 9.50 12.83 9.24L12.83 9.24L12.83 9.24Q12.83 8.99 12.47 8.99L12.47 8.99L12.47 8.99Q12.11 8.99 12.05 9.38L12.05 9.38L12.05 9.38Q12.24 9.50 12.49 9.50ZM16.95 11.57L16.95 9.59L17.37 9.59L17.37 9.59Q17.71 9.59 17.71 9.37L17.71 9.37L17.71 9.37Q17.71 9.34 17.70 9.28L17.70 9.28L16.17 9.28L16.17 9.28Q16.02 8.80 16.02 8.21L16.02 8.21L16.02 8.21Q16.02 7.62 16.11 7.25L16.11 7.25L16.11 7.25Q16.50 7.01 17.18 6.50L17.18 6.50L17.18 6.50Q17.37 6.04 17.68 5.02L17.68 5.02L17.68 5.02Q17.72 4.89 17.77 4.76L17.77 4.76L17.77 4.76Q18.31 4.62 18.99 4.62L18.99 4.62L18.99 4.62Q19.67 4.62 20.34 4.76L20.34 4.76L20.34 6.44L21.52 6.44L21.52 6.44Q21.92 7.04 21.92 7.85L21.92 7.85L21.92 7.85Q21.92 8.22 21.81 8.61L21.81 8.61L21.81 8.61Q21.71 9.00 21.52 9.28L21.52 9.28L20.54 9.28L20.54 10.31L20.54 10.31Q20.54 11.18 21.27 11.18L21.27 11.18L21.57 11.18L21.57 11.18Q21.71 11.70 21.71 12.09L21.71 12.09L21.71 12.09Q21.71 13.03 21.12 13.53L21.12 13.53L21.12 13.53Q20.53 14.03 19.40 14.03L19.40 14.03L19.40 14.03Q18.28 14.03 17.61 13.41L17.61 13.41L17.61 13.41Q16.95 12.78 16.95 11.57L16.95 11.57ZM29.32 8.07L29.32 9.32L29.32 9.32Q29.35 9.34 29.48 9.34L29.48 9.34L29.48 9.34Q29.61 9.34 29.67 9.24L29.67 9.24L29.67 9.24Q29.74 9.14 29.74 8.91L29.74 8.91L29.74 8.39L29.74 8.39Q29.74 8.14 29.69 8.04L29.69 8.04L29.69 8.04Q29.63 7.93 29.49 7.93L29.49 7.93L29.49 7.93Q29.36 7.93 29.31 7.96L29.31 7.96L29.31 7.96Q29.32 7.99 29.32 8.07L29.32 8.07ZM29.49 12.41L29.49 12.41L29.49 13.46L29.49 13.46Q29.19 13.71 28.64 13.87L28.64 13.87L28.64 13.87Q28.10 14.03 27.50 14.03L27.50 14.03L27.50 14.03Q26.65 14.03 26.11 13.71L26.11 13.71L26.11 13.71Q25.50 13.33 25.50 12.62L25.50 12.62L25.50 6.13L25.50 6.13Q25.50 5.91 25.80 5.69L25.80 5.69L25.80 5.69Q26.09 5.47 26.62 5.29L26.62 5.29L26.62 5.29Q27.75 4.91 29.20 4.91L29.20 4.91L29.20 4.91Q31.20 4.91 32.39 5.91L32.39 5.91L32.39 5.91Q33.58 6.90 33.58 8.59L33.58 8.59L33.58 8.59Q33.58 10.27 32.50 11.21L32.50 11.21L32.50 11.21Q31.47 12.10 29.64 12.10L29.64 12.10L29.64 12.10Q29.22 12.10 28.75 12.00L28.75 12.00L28.75 12.00Q28.27 11.90 28.11 11.83L28.11 11.83L28.11 11.83Q28.05 11.88 28.05 11.98L28.05 11.98L28.05 11.98Q28.05 12.33 29.49 12.41ZM40.47 9.19L40.47 10.53L40.47 10.53Q40.47 11.02 40.58 11.32L40.58 11.32L40.58 11.32Q40.69 11.62 40.96 11.79L40.96 11.79L40.96 11.79Q40.97 11.83 40.97 11.92L40.97 11.92L40.97 12.04L40.97 12.04Q40.97 13.02 40.38 13.56L40.38 13.56L40.38 13.56Q39.86 14.03 39.09 14.03L39.09 14.03L39.09 14.03Q38.58 14.03 38.14 13.79L38.14 13.79L38.14 13.79Q37.71 13.54 37.53 13.08L37.53 13.08L37.53 13.08Q37.30 13.08 37.30 13.30L37.30 13.30L37.30 13.30Q37.30 13.49 37.54 13.73L37.54 13.73L37.54 13.73Q37.09 14.03 36.20 14.03L36.20 14.03L36.20 14.03Q34.93 14.03 34.18 13.35L34.18 13.35L34.18 13.35Q33.42 12.66 33.42 11.43L33.42 11.43L33.42 11.43Q33.42 10.19 34.22 9.52L34.22 9.52L34.22 9.52Q34.95 8.91 36.11 8.91L36.11 8.91L36.11 8.91Q36.51 8.91 36.88 8.96L36.88 8.96L36.88 8.96Q37.13 9.01 37.15 9.02L37.15 9.02L37.15 9.02Q37.17 8.95 37.17 8.90L37.17 8.90L37.17 8.90Q37.17 8.72 36.87 8.66L36.87 8.66L36.87 8.66Q36.57 8.60 36.08 8.60L36.08 8.60L36.08 8.60Q35.05 8.60 34.32 9.02L34.32 9.02L34.32 9.02Q33.98 8.45 33.98 7.58L33.98 7.58L33.98 7.58Q33.98 7.09 34.10 6.85L34.10 6.85L34.10 6.85Q34.60 6.62 35.36 6.45L35.36 6.45L35.36 6.45Q36.11 6.28 36.96 6.28L36.96 6.28L36.96 6.28Q38.69 6.28 39.58 7.03L39.58 7.03L39.58 7.03Q40.47 7.79 40.47 9.19L40.47 9.19ZM36.92 10.86L36.92 10.86L36.92 10.86Q36.63 10.86 36.63 11.12L36.63 11.12L36.63 11.12Q36.63 11.37 36.97 11.37L36.97 11.37L36.97 11.37Q37.20 11.37 37.31 11.26L37.31 11.26L37.31 11.26Q37.42 11.14 37.42 10.86L37.42 10.86L37.42 10.86Q37.42 10.86 36.92 10.86ZM44.73 7.76L44.73 7.76L44.73 10.47L44.73 10.47Q44.73 11.48 45.22 11.79L45.22 11.79L45.22 11.79Q45.23 11.83 45.23 11.92L45.23 11.92L45.23 12.04L45.23 12.04Q45.23 13.05 44.68 13.56L44.68 13.56L44.68 13.56Q44.17 14.03 43.33 14.03L43.33 14.03L43.33 14.03Q42.49 14.03 41.94 13.56L41.94 13.56L41.94 13.56Q41.25 12.95 41.25 11.78L41.25 11.78L41.25 7.33L41.25 7.33Q41.37 7.25 41.51 7.19L41.51 7.19L41.51 7.19Q41.66 7.14 41.82 7.05L41.82 7.05L41.82 7.05Q41.52 6.90 41.28 6.53L41.28 6.53L41.28 6.53Q41.04 6.16 41.04 5.66L41.04 5.66L41.04 5.66Q41.04 4.80 41.61 4.25L41.61 4.25L41.61 4.25Q42.18 3.71 43.00 3.71L43.00 3.71L43.00 3.71Q43.83 3.71 44.38 4.26L44.38 4.26L44.38 4.26Q44.94 4.82 44.94 5.66L44.94 5.66L44.94 5.66Q44.94 6.34 44.52 6.85L44.52 6.85L44.52 6.85Q44.09 7.36 43.48 7.49L43.48 7.49L43.48 7.49Q43.48 7.75 43.68 7.75L43.68 7.75L43.68 7.75Q44.03 7.75 44.39 7.47L44.39 7.47L44.39 7.47Q44.67 7.68 44.73 7.76ZM47.46 14L47.46 14L47.46 14Q46.65 14 46.16 13.71L46.16 13.71L46.16 13.71Q45.62 13.40 45.62 12.80L45.62 12.80L45.62 9.28L45.62 9.28Q45.22 8.71 45.22 7.88L45.22 7.88L45.22 7.88Q45.22 7.05 45.62 6.44L45.62 6.44L46.67 6.44L46.67 6.44Q47.48 6.44 47.82 6.96L47.82 6.96L47.82 6.96Q47.65 7.15 47.52 7.44L47.52 7.44L47.52 7.44Q47.39 7.74 47.39 7.86L47.39 7.86L47.39 7.86Q47.39 7.99 47.46 8.05L47.46 8.05L47.46 8.05Q47.52 8.11 47.65 8.11L47.65 8.11L47.65 8.11Q47.89 7.16 48.56 6.72L48.56 6.72L48.56 6.72Q49.11 6.34 49.92 6.34L49.92 6.34L49.92 6.34Q50.93 6.34 51.51 6.77L51.51 6.77L51.51 6.77Q51.71 7.32 51.71 8.11L51.71 8.11L51.71 8.11Q51.71 8.90 51.40 9.54L51.40 9.54L51.40 9.54Q51.17 9.67 50.76 9.75L50.76 9.75L50.76 9.75Q50.35 9.84 49.93 9.84L49.93 9.84L49.93 9.84Q49.51 9.84 49.18 9.78L49.18 9.78L49.18 9.78Q48.85 9.72 48.70 9.67L48.70 9.67L48.70 9.67Q48.64 9.73 48.64 9.83L48.64 9.83L48.64 9.83Q48.64 9.93 48.78 9.98L48.78 9.98L48.78 9.98Q48.91 10.04 49.23 10.10L49.23 10.10L49.23 13.53L49.23 13.53Q48.48 14 47.46 14Z"></path></g><!----><!----></svg>